<?xml version="1.0" encoding="UTF-8"?>
<svg version="1.1" xmlns="http://www.w3.org/2000/svg" width="3264" height="3264">
<path d="M0 0 C0.71613971 0.00993636 1.43227942 0.01987272 2.17012033 0.03011018 C2.93552838 0.02489561 3.70093643 0.01968104 4.48953867 0.01430845 C7.07555875 0.00163277 9.66062129 0.01767925 12.24661359 0.0334118 C14.11076543 0.03023769 15.97491498 0.02531256 17.83905807 0.01877898 C22.97818017 0.00590587 28.11698899 0.01812347 33.25609061 0.03430754 C38.79196395 0.04742691 44.32780127 0.03757214 49.86367902 0.03054315 C60.71527442 0.0204427 71.56674824 0.03176313 82.41832855 0.05024375 C95.045465 0.07097777 107.67257493 0.07087227 120.29972521 0.06989859 C143.505931 0.06886622 166.71206925 0.08896118 189.9182496 0.11890347 C211.11247609 0.14614903 232.30665746 0.15862623 253.50090131 0.15728265 C254.86158032 0.15720183 256.22225933 0.15712111 257.58293834 0.15704049 C258.25562481 0.15699979 258.92831129 0.15695909 259.6213822 0.15691715 C263.0074428 0.15671557 266.39350339 0.1565344 269.77956399 0.15637666 C270.78154244 0.15632652 270.78154244 0.15632652 271.80376287 0.15627537 C293.2977614 0.15538867 314.79175213 0.16962639 336.28574423 0.18510235 C345.09493584 0.19114288 353.90412355 0.19326241 362.71331701 0.19416696 C373.44435447 0.19552944 384.17535606 0.20443365 394.90637829 0.22283258 C400.38525314 0.23208452 405.86408203 0.2381537 411.34296522 0.23564416 C416.35342423 0.23346041 421.36378145 0.24045192 426.37421922 0.25494121 C428.19181628 0.25857944 430.00942381 0.25881727 431.82702132 0.25540663 C434.28821493 0.25129797 436.74907151 0.25936682 439.21023569 0.27061921 C439.92403423 0.26650858 440.63783277 0.26239794 441.37326157 0.25816274 C444.98217121 0.28852178 447.72842164 0.45874613 450.75309858 2.52788812 C451.80980024 4.23884088 451.80980024 4.23884088 452.60563764 6.32696038 C452.91471555 7.11709527 453.22379346 7.90723016 453.54223737 8.72130853 C453.86447782 9.58689386 454.18671827 10.45247918 454.51872358 11.34429437 C455.04383779 12.70321801 455.04383779 12.70321801 455.57956037 14.08959466 C456.73373282 17.08504928 457.8682141 20.08757876 459.00309858 23.09038812 C459.80970017 25.19339195 460.61774267 27.29584365 461.42717084 29.39776117 C463.08325282 33.7024419 464.73255304 38.00962564 466.37663373 42.31890374 C469.44780769 50.35836702 472.58669578 58.37092866 475.72801313 66.38317376 C482.30803929 83.18016021 488.81703972 100.0048356 495.33329877 116.82662469 C501.17493606 131.90451202 507.04378957 146.97149344 512.94059858 162.02788812 C513.49987546 163.45593774 513.49987546 163.45593774 514.07045087 164.91283685 C515.55600656 168.7057981 517.04168913 172.49870963 518.5275279 176.29155999 C522.25434081 185.80557583 525.97494132 195.32201012 529.69059858 204.84038812 C530.01315626 205.66664697 530.33571393 206.49290582 530.66804609 207.34420282 C536.58135765 222.49537328 542.4584047 237.66052584 548.33329877 252.82662469 C554.17493606 267.90451202 560.04378957 282.97149344 565.94059858 298.02788812 C566.31344983 298.9799212 566.68630109 299.93195428 567.07045087 300.91283685 C568.55600656 304.7057981 570.04168913 308.49870963 571.5275279 312.29155999 C575.25434081 321.80557583 578.97494132 331.32201012 582.69059858 340.84038812 C583.01315626 341.66664697 583.33571393 342.49290582 583.66804609 343.34420282 C589.58135765 358.49537328 595.4584047 373.66052584 601.33329877 388.82662469 C607.17493606 403.90451202 613.04378957 418.97149344 618.94059858 434.02788812 C619.31344983 434.9799212 619.68630109 435.93195428 620.07045087 436.91283685 C621.55600656 440.7057981 623.04168913 444.49870963 624.5275279 448.29155999 C628.25434081 457.80557583 631.97494132 467.32201012 635.69059858 476.84038812 C636.01315626 477.66664697 636.33571393 478.49290582 636.66804609 479.34420282 C642.58135765 494.49537328 648.4584047 509.66052584 654.33329877 524.82662469 C660.17493606 539.90451202 666.04378957 554.97149344 671.94059858 570.02788812 C672.31344983 570.9799212 672.68630109 571.93195428 673.07045087 572.91283685 C674.55600656 576.7057981 676.04168913 580.49870963 677.5275279 584.29155999 C681.25434081 593.80557583 684.97494132 603.32201012 688.69059858 612.84038812 C689.01315626 613.66664697 689.33571393 614.49290582 689.66804609 615.34420282 C695.58135765 630.49537328 701.4584047 645.66052584 707.33329877 660.82662469 C715.0150096 680.65393757 722.75746551 700.4571424 730.51393232 720.25530511 C734.31031453 729.94708446 738.09516663 739.64335245 741.87809858 749.34038812 C742.52840596 751.00713689 743.1787152 752.67388494 743.82902631 754.34063226 C746.90406529 762.22245918 749.97807649 770.1046866 753.05152997 777.98713189 C754.51592642 781.74261957 755.98065024 785.49797952 757.44542035 789.25332147 C758.47295319 791.88809023 759.49999775 794.52304895 760.52702436 797.15801507 C763.5698445 804.96112516 766.6156812 812.76216251 769.75309858 820.52788812 C773.8756852 811.88033709 777.37187397 803.02659063 780.82255659 794.09728509 C782.21116711 790.50439405 783.6070438 786.91433803 785.00239667 783.32406121 C785.75230683 781.39440308 786.50187314 779.46461128 787.25111493 777.53469354 C791.64112335 766.2300471 796.07238472 754.9416271 800.50309858 743.65288812 C801.34941289 741.49575923 802.19568541 739.33861394 803.04191694 737.18145257 C804.75439174 732.8162322 806.46704057 728.45108017 808.17985639 724.08599359 C812.41361478 713.29618832 816.64608991 702.50587977 820.87809858 691.71538812 C821.29345868 690.65636285 821.70881879 689.59733758 822.13676557 688.50622064 C828.01577768 673.51613965 833.88743576 658.52319737 839.75309858 643.52788812 C848.5622083 621.00778618 857.39017044 598.49509706 866.22087201 575.98345453 C869.98299644 566.39269937 873.74401507 556.80151057 877.50511274 547.21035272 C879.58772897 541.89951326 881.67041745 536.58870213 883.75309858 531.27788812 C884.58643226 529.15288825 885.41976559 527.02788825 886.25309858 524.90288812 C901.25309858 486.65288812 916.25309858 448.40288812 931.25309858 410.15288812 C931.66558851 409.1010383 932.07807844 408.04918847 932.50306806 406.96546441 C933.33650174 404.84020956 934.16993679 402.71495524 935.00337324 400.58970147 C937.08518267 395.28110521 939.16696816 389.97249955 941.24870405 384.66387445 C945.01686479 375.05477432 948.78520553 365.44574497 952.55442914 355.8370617 C960.96208255 334.40383377 969.36598922 312.96916466 977.75309858 291.52788812 C986.5622083 269.00778618 995.39017044 246.49509706 1004.22087201 223.98345453 C1007.98299644 214.39269937 1011.74401507 204.80151057 1015.50511274 195.21035272 C1017.58772897 189.89951326 1019.67041745 184.58870213 1021.75309858 179.27788812 C1022.58643226 177.15288825 1023.41976559 175.02788825 1024.25309858 172.90288812 C1049.25309849 109.15288833 1049.25309849 109.15288833 1050.5028697 105.96598321 C1051.33697634 103.83900364 1052.1710726 101.71201999 1053.00515851 99.58503228 C1055.07657546 94.3027865 1057.14816741 89.02060949 1059.22013959 83.73858148 C1063.11240018 73.81558816 1067.00285826 63.89189851 1070.88746747 53.96590692 C1072.7146614 49.29734537 1074.5428042 44.62915564 1076.3710185 39.96099359 C1077.23900519 37.74389381 1078.10653124 35.52661363 1078.97355756 33.30913812 C1081.55378431 26.71022716 1084.14478077 20.1157469 1086.75309858 13.52788812 C1087.03018659 12.82460382 1087.3072746 12.12131952 1087.59275922 11.39672357 C1088.28569758 9.64443442 1088.98950246 7.89645218 1089.69450483 6.14898187 C1090.0535893 5.25493646 1090.41267377 4.36089105 1090.78263959 3.43975335 C1091.75309858 1.52788812 1091.75309858 1.52788812 1093.75309858 0.52788812 C1095.4031777 0.43137922 1097.05715607 0.39871071 1098.71005353 0.39646035 C1099.7647877 0.39261921 1100.81952186 0.38877806 1101.90621766 0.38482052 C1103.07409413 0.385687 1104.24197059 0.38655349 1105.44523725 0.38744622 C1106.67876778 0.3844751 1107.91229831 0.38150398 1109.18320855 0.37844282 C1112.61811925 0.37124665 1116.05297996 0.36858228 1119.48789462 0.36784536 C1123.18800618 0.3659979 1126.88810683 0.35845225 1130.5882121 0.35171014 C1138.68300962 0.33811487 1146.77780219 0.33210054 1154.87260923 0.32769948 C1159.92305459 0.32493967 1164.97349802 0.32070286 1170.02394208 0.31619531 C1183.99644961 0.3040022 1197.96895559 0.29370224 1211.94146833 0.29032022 C1213.28343618 0.28999087 1213.28343618 0.28999087 1214.65251449 0.28965487 C1215.54934166 0.28943659 1216.44616884 0.28921831 1217.37017259 0.28899342 C1219.18759323 0.28854995 1221.00501387 0.28810338 1222.82243451 0.28765374 C1224.17469957 0.2873216 1224.17469957 0.2873216 1225.55428311 0.28698274 C1240.17364414 0.28303171 1254.79295542 0.26556859 1269.41229722 0.24229422 C1284.40763674 0.21861309 1299.40295126 0.20611989 1314.3983098 0.2049523 C1322.82343418 0.20403383 1331.24849371 0.19823829 1339.67360029 0.18013269 C1346.84522378 0.16477547 1354.01676237 0.15958527 1361.18839917 0.16787079 C1364.85040667 0.17179264 1368.51224298 0.17077357 1372.17422971 0.15681344 C1376.13654823 0.14184584 1380.09862236 0.1498953 1384.06095991 0.16039544 C1385.22883637 0.15233904 1386.39671283 0.14428263 1387.59997949 0.1359821 C1389.18208073 0.14586686 1389.18208073 0.14586686 1390.79614362 0.15595132 C1391.71170435 0.15535423 1392.62726508 0.15475714 1393.57057008 0.15414196 C1394.65092169 0.33914631 1394.65092169 0.33914631 1395.75309858 0.52788812 C1398.40153062 4.50053619 1398.02777316 7.92644271 1398.00149557 12.53748703 C1398.00405174 13.47671489 1398.00660791 14.41594275 1398.00924155 15.38363207 C1398.01542263 18.56703147 1398.00720805 21.75023668 1397.99919423 24.93362981 C1398.00067211 27.23433848 1398.00302777 29.53504673 1398.00618723 31.83575371 C1398.01171001 37.53831478 1398.00784244 43.24081735 1398.00018105 48.94337469 C1397.99147901 55.8174979 1397.99443965 62.69160356 1397.99779809 69.56572969 C1398.00373912 82.41388809 1398.00017311 95.26202835 1397.99150953 108.11018449 C1397.98276423 121.13677695 1397.97836309 134.16336004 1397.97931394 147.18995553 C1397.97940002 148.42247011 1397.97940002 148.42247011 1397.97948783 149.67988398 C1397.97980057 153.86934998 1397.98018447 158.05881597 1397.9805935 162.24828196 C1397.98341119 192.60018707 1397.97653752 222.95208383 1397.96455869 253.30398637 C1397.95272105 283.36988569 1397.94500997 313.43578143 1397.94285306 343.50168306 C1397.94278424 344.4347907 1397.94271542 345.36789835 1397.94264451 346.32928199 C1397.94201812 354.85155661 1397.94144274 363.37383123 1397.94092856 371.89610586 C1397.93964963 393.08323867 1397.9377309 414.27037138 1397.93537816 435.45750409 C1397.93527153 436.42240888 1397.93516489 437.38731367 1397.93505503 438.381458 C1397.9298097 485.33920494 1397.91719365 532.29694951 1397.90397748 579.25469476 C1397.89939424 595.55376701 1397.89484354 611.85283926 1397.89042768 628.15191156 C1397.89001683 629.66817936 1397.89001683 629.66817936 1397.88959768 631.21507883 C1397.87691376 678.19084829 1397.86945971 725.16661816 1397.86335809 772.14238888 C1397.86296196 775.1914138 1397.86256357 778.24043873 1397.86216473 781.28946365 C1397.85952521 801.49520448 1397.8569759 821.70094532 1397.85448701 841.90668617 C1397.84953377 882.11243406 1397.8440504 922.31818188 1397.83820292 962.52392965 C1397.83792444 964.43871038 1397.83764633 966.35349112 1397.83736859 968.26827185 C1397.82485954 1054.48721737 1397.80618275 1140.70616116 1397.78483686 1226.92510492 C1397.78453705 1228.13630079 1397.78453705 1228.13630079 1397.78423119 1229.37196526 C1397.7742299 1269.75727298 1397.76387683 1310.1425806 1397.75309858 1350.52788812 C1395.30458005 1351.75214738 1393.72457303 1351.65543092 1390.98634538 1351.65931588 C1389.97402866 1351.66315703 1388.96171195 1351.66699817 1387.91871896 1351.67095572 C1386.798216 1351.67008924 1385.67771304 1351.66922275 1384.52325544 1351.66833001 C1383.3394331 1351.67130114 1382.15561076 1351.67427226 1380.93591502 1351.67733341 C1377.63975318 1351.68452899 1374.34364343 1351.68719391 1371.04747745 1351.68793088 C1367.49663218 1351.6897785 1363.94579827 1351.69732428 1360.39495954 1351.7040661 C1352.62653082 1351.71766116 1344.85810724 1351.72367577 1337.0896686 1351.72807676 C1332.24223717 1351.73083682 1327.39480775 1351.7350737 1322.54737768 1351.73958093 C1309.1350391 1351.75177441 1295.72270213 1351.76207403 1282.31035814 1351.76545602 C1281.02218463 1351.76578537 1281.02218463 1351.76578537 1279.70798742 1351.76612137 C1278.84711509 1351.76633965 1277.98624275 1351.76655793 1277.09928337 1351.76678282 C1275.35473805 1351.76722629 1273.61019273 1351.76767285 1271.86564741 1351.76812249 C1271.00028706 1351.76834392 1270.13492671 1351.76856535 1269.24334332 1351.76879349 C1255.21311078 1351.77274374 1241.18293011 1351.7902043 1227.15271763 1351.81348202 C1212.7596698 1351.83716969 1198.36664803 1351.84965667 1183.97358039 1351.85082394 C1175.88768349 1351.85174208 1167.80185418 1351.85752939 1159.71597585 1351.87564355 C1152.83240465 1351.89100963 1145.94892194 1351.89618572 1139.06533686 1351.88790545 C1135.5510472 1351.88398666 1132.03693592 1351.88498792 1128.52266797 1351.8989628 C1124.71834242 1351.9139533 1120.91427079 1351.90587175 1117.10992536 1351.8953808 C1115.99165312 1351.9034372 1114.87338088 1351.9114936 1113.7212216 1351.91979414 C1112.70629713 1351.9132043 1111.69137267 1351.90661445 1110.64569291 1351.89982492 C1109.32760112 1351.90072055 1109.32760112 1351.90072055 1107.98288122 1351.90163428 C1105.21144291 1351.43709823 1104.48768844 1350.70108705 1102.75309858 1348.52788812 C1102.3764544 1346.61492636 1102.3764544 1346.61492636 1102.37409106 1344.40425551 C1102.36591576 1343.55896457 1102.35774046 1342.71367362 1102.34931743 1341.8427678 C1102.35559413 1340.91210676 1102.36187082 1339.98144572 1102.36833772 1339.02258283 C1102.36318781 1338.03142269 1102.35803791 1337.04026255 1102.35273194 1336.01906726 C1102.33901042 1332.66534208 1102.3468264 1329.31200231 1102.35437116 1325.95826226 C1102.34893713 1323.54266167 1102.34218786 1321.12706373 1102.33422926 1318.71147013 C1102.31990516 1313.44283097 1102.31494521 1308.17430455 1102.31810674 1302.90565568 C1102.3227577 1295.07134231 1102.31030076 1287.23712219 1102.29427701 1279.40282717 C1102.26781274 1266.22558023 1102.25531427 1253.04835432 1102.25071248 1239.87108308 C1102.24610923 1226.81963551 1102.23533716 1213.76821718 1102.21628484 1200.71678239 C1102.21510471 1199.90597574 1102.21392459 1199.0951691 1102.2127087 1198.25979255 C1102.20668347 1194.14229302 1102.20054762 1190.02479366 1102.19436919 1185.90729436 C1102.15078047 1156.72573894 1102.12108563 1127.54418422 1102.09953412 1098.36260492 C1102.07856243 1070.00907861 1102.05131446 1041.65556972 1102.01554975 1013.30205804 C1102.01445027 1012.42842991 1102.01335079 1011.55480178 1102.012218 1010.65470007 C1102.00116988 1001.88154983 1101.98999396 993.10839975 1101.97872438 984.33524978 C1101.95576885 966.46254839 1101.93366651 948.58984598 1101.9120799 930.71714288 C1101.91108628 929.89534373 1101.91009266 929.07354458 1101.90906893 928.22684242 C1101.84278882 873.32720516 1101.79646102 818.42754767 1101.75309858 763.52788812 C1099.2102522 769.94587674 1096.66809942 776.3641398 1094.12637433 782.78257257 C1093.26607156 784.95481236 1092.40562403 787.12699483 1091.54501447 789.29911309 C1085.60175843 804.29985572 1079.69003853 819.31256151 1073.81559858 834.34038812 C1073.33990116 835.55687665 1072.86420373 836.77336519 1072.37409124 838.02671701 C1071.36310481 840.61280965 1070.3528974 843.19920506 1069.34294233 845.78570062 C1064.53211192 858.09982745 1059.70593217 870.40791955 1054.87809858 882.71538812 C1054.0384923 884.8560105 1053.1988927 886.99663551 1052.35929975 889.13726312 C1049.40054986 896.68069007 1046.44144689 904.2239785 1043.48234662 911.767268 C1040.53072097 919.29155916 1037.57927182 926.81591951 1034.62809858 934.34038812 C1034.2125572 935.39986657 1033.79701581 936.45934503 1033.36888227 937.55092889 C1027.490055 952.54055278 1021.61858179 967.53303803 1015.75309858 982.52788812 C1009.46884749 998.59329989 1003.17692522 1014.65568526 996.87809858 1030.71538812 C996.2550282 1032.30400155 996.2550282 1032.30400155 995.61937055 1033.92470819 C992.24066883 1042.53901493 988.86151619 1051.15314478 985.48234662 1059.767268 C982.53072097 1067.29155916 979.57927182 1074.81591951 976.62809858 1082.34038812 C976.0047865 1083.9296058 976.0047865 1083.9296058 975.36888227 1085.55092889 C969.490055 1100.54055278 963.61858179 1115.53303803 957.75309858 1130.52788812 C951.46884749 1146.59329989 945.17692522 1162.65568526 938.87809858 1178.71538812 C938.2550282 1180.30400155 938.2550282 1180.30400155 937.61937055 1181.92470819 C934.24066883 1190.53901493 930.86151619 1199.15314478 927.48234662 1207.767268 C924.53072097 1215.29155916 921.57927182 1222.81591951 918.62809858 1230.34038812 C918.0047865 1231.9296058 918.0047865 1231.9296058 917.36888227 1233.55092889 C911.85812546 1247.60205988 906.35327302 1261.65548652 900.85493574 1275.71148187 C899.76324401 1278.50195537 898.67119867 1281.2922902 897.57902631 1284.08257562 C896.84667792 1285.95366628 896.11433748 1287.82476005 895.38200483 1289.69585687 C895.01604703 1290.63086023 894.65008924 1291.56586358 894.27304181 1292.52920038 C891.72390958 1299.04345482 889.17869154 1305.55923048 886.63478193 1312.07552606 C884.77483788 1316.83834011 882.9127305 1321.60030659 881.05021772 1326.36211663 C880.14757625 1328.67131631 879.24587543 1330.98088391 878.34513959 1333.29082757 C877.09680423 1336.49188451 875.84525244 1339.69166575 874.59294233 1342.89116937 C874.2178201 1343.8554133 873.84269788 1344.81965722 873.45620832 1345.81312066 C873.11324216 1346.68748269 872.77027601 1347.56184472 872.41691694 1348.46270257 C871.96873861 1349.6102678 871.96873861 1349.6102678 871.51150617 1350.78101617 C870.75309858 1352.52788812 870.75309858 1352.52788812 869.75309858 1353.52788812 C867.22261697 1353.63672198 864.71901322 1353.68013076 862.18760785 1353.68178827 C861.38582144 1353.68617052 860.58403503 1353.69055277 859.75795206 1353.69506782 C857.05027728 1353.70850571 854.34263507 1353.71464584 851.63493451 1353.72075921 C849.70203607 1353.72865629 847.7691391 1353.73692499 845.83624372 1353.74553949 C839.47000142 1353.77180646 833.10375239 1353.78707232 826.73747358 1353.80132562 C824.5493352 1353.80668348 822.36119688 1353.81206098 820.1730586 1353.81745797 C811.07311044 1353.83909404 801.97316408 1353.85783189 792.87319669 1353.86908036 C779.8147792 1353.88532567 766.75665901 1353.9185094 753.69835362 1353.97548121 C744.5263566 1354.01413815 735.35443925 1354.03370806 726.18236288 1354.03900093 C720.6997005 1354.04266037 715.21735487 1354.05474441 709.7347804 1354.08710366 C704.57684924 1354.11710929 699.41942771 1354.12352292 694.26142797 1354.11171991 C692.36714064 1354.11149854 690.47283019 1354.11985569 688.57862386 1354.13737375 C685.9939727 1354.15997788 683.41118314 1354.15181212 680.82652387 1354.13588983 C680.07525338 1354.14977192 679.3239829 1354.163654 678.54994664 1354.17795676 C674.59660222 1354.11786981 672.9268955 1353.67022944 669.82681474 1351.13123399 C667.90408314 1348.71743433 666.70149749 1346.79091871 665.60344037 1343.92925531 C665.25442167 1343.03930871 664.90540296 1342.14936212 664.54580793 1341.23244745 C664.00453008 1339.7931437 664.00453008 1339.7931437 663.45231733 1338.32476312 C662.86239751 1336.80485269 662.86239751 1336.80485269 662.26056013 1335.254237 C660.97486882 1331.93341283 659.70781531 1328.6058008 658.44059858 1325.27788812 C657.5457509 1322.95723236 656.6495778 1320.63708728 655.75212201 1318.3174389 C653.9360512 1313.61884023 652.12664987 1308.91776226 650.3229228 1304.21441156 C647.07664114 1295.75595809 643.77683391 1287.31872101 640.47331342 1278.88250238 C638.84522916 1274.72154671 637.22320051 1270.55823237 635.60075483 1266.39507562 C633.02793754 1259.79505939 630.45223398 1253.19617782 627.87419233 1246.59820062 C621.12411855 1229.32003456 614.3952936 1212.03390724 607.69685468 1194.73565179 C607.10594541 1193.20968377 607.10594541 1193.20968377 606.50309858 1191.65288812 C606.10778943 1190.63203119 605.71248029 1189.61117425 605.30519208 1188.55938226 C598.74746157 1171.62895574 592.13250009 1154.72150277 585.4939433 1137.82262689 C579.37332015 1122.23986561 573.29553236 1106.64112695 567.25309858 1091.02788812 C560.73178853 1074.17827511 554.16818855 1057.34582088 547.56559858 1040.52788812 C547.14521314 1039.45701959 546.7248277 1038.38615106 546.29170331 1037.28283197 C545.4509876 1035.14127814 544.610264 1032.99972741 543.76953229 1030.85817987 C543.35934354 1029.81332422 542.94915479 1028.76846856 542.52653608 1027.69195062 C541.91687246 1026.13904824 541.91687246 1026.13904824 541.2948924 1024.55477411 C537.41674674 1014.67473287 533.54949366 1004.79046318 529.69059858 994.90288812 C529.37092115 994.08382989 529.05124372 993.26477166 528.72187909 992.42089349 C522.89056751 977.47596859 517.09717615 962.51641028 511.30409345 947.55663568 C504.74673732 930.62712133 498.13213964 913.72058524 491.4939433 896.82262689 C485.37332015 881.23986561 479.29553236 865.64112695 473.25309858 850.02788812 C466.73178853 833.17827511 460.16818855 816.34582088 453.56559858 799.52788812 C453.14521314 798.45701959 452.7248277 797.38615106 452.29170331 796.28283197 C451.4509876 794.14127814 450.610264 791.99972741 449.76953229 789.85817987 C449.15424917 788.29089639 449.15424917 788.29089639 448.52653608 786.69195062 C448.12009366 785.65668237 447.71365125 784.62141412 447.2948924 783.55477411 C443.41674674 773.67473287 439.54949366 763.79046318 435.69059858 753.90288812 C435.21108243 752.67430078 435.21108243 752.67430078 434.72187909 751.42089349 C428.89056751 736.47596859 423.09717615 721.51641028 417.30409345 706.55663568 C410.7497322 689.63485339 404.1383353 672.7359666 397.50300702 655.84578973 C390.43670666 637.85597027 383.42808285 619.84433052 376.4581767 601.81695062 C372.3254155 591.1324858 368.16240358 580.46039869 363.97013959 569.79912835 C363.46080212 568.50331739 362.95148651 567.20749784 362.44219312 565.91166955 C361.21270871 562.7836583 359.9830066 559.65573283 358.75309858 556.52788812 C358.75269839 557.21671116 358.75229821 557.9055342 358.7518859 558.61523067 C358.70823097 633.57462287 358.6608837 708.5340124 358.59411725 783.493388 C358.59312169 784.61230543 358.59212612 785.73122287 358.59110039 786.8840469 C358.56944412 811.19850348 358.54712159 835.5129594 358.5241123 859.82741474 C358.51283333 871.75044026 358.50170167 883.67346591 358.49064741 895.59649163 C358.48954484 896.78300446 358.48844227 897.96951728 358.4873063 899.19198503 C358.4516091 937.68144914 358.42564689 976.17091237 358.40470889 1014.66038709 C358.38314922 1054.19847287 358.35181655 1093.73653906 358.30810745 1133.27460686 C358.30194479 1138.85331879 358.29589439 1144.43203084 358.28991231 1150.01074296 C358.28873143 1151.10876217 358.28755055 1152.20678139 358.28633388 1153.33807391 C358.26757958 1171.0452238 358.25919172 1188.75236431 358.25463734 1206.45952291 C358.24984398 1224.24176644 358.23423226 1242.02397399 358.20743292 1259.80619822 C358.19182472 1270.38350564 358.18465576 1280.96074218 358.18932929 1291.53806049 C358.1916311 1298.59244172 358.18317872 1305.64675567 358.16577447 1312.7011157 C358.15615394 1316.72782709 358.15140555 1320.75438985 358.15970295 1324.78110758 C358.16714769 1328.43844327 358.16101028 1332.09548512 358.1436579 1335.75278492 C358.13802833 1337.70012773 358.14722485 1339.64749578 358.15687972 1341.59482279 C358.14870443 1342.73969793 358.14052913 1343.88457307 358.1321061 1345.06414139 C358.13132619 1346.05446238 358.13054629 1347.04478336 358.12974275 1348.06511407 C357.75309858 1350.52788812 357.75309858 1350.52788812 356.45498415 1352.34577708 C353.49218664 1354.40370372 349.99735859 1353.93801454 346.51603803 1353.90883905 C345.66621256 1353.91351902 344.81638709 1353.91819899 343.94080934 1353.92302078 C341.08250917 1353.93502263 338.22468387 1353.92549335 335.36637983 1353.91607171 C333.32156699 1353.92013511 331.27675635 1353.92547568 329.2319499 1353.93200189 C323.67006553 1353.94570886 318.10834762 1353.94036288 312.54646024 1353.93086463 C306.7342315 1353.92328554 300.92201731 1353.93030876 295.10978803 1353.93502313 C285.34796179 1353.94048579 275.58620356 1353.93327567 265.82438764 1353.9190014 C254.52777285 1353.90267394 243.23132049 1353.90796209 231.93470964 1353.92448062 C222.24719483 1353.93808093 212.559729 1353.94002227 202.87220773 1353.93216461 C197.08122637 1353.92748009 191.29032142 1353.9268846 185.49934492 1353.93677408 C180.05583292 1353.9454203 174.61253095 1353.93946476 169.16904172 1353.92209131 C167.16750668 1353.91811391 165.16595406 1353.91928179 163.16442594 1353.9258793 C160.43942916 1353.93403549 157.71511218 1353.92384531 154.99015912 1353.90883905 C154.19162676 1353.91553121 153.3930944 1353.92222338 152.57036409 1353.92911834 C147.29843606 1353.87251712 147.29843606 1353.87251712 145.05027809 1352.4517814 C143.10788811 1349.57095343 143.34820502 1346.72341064 143.38904974 1343.36807221 C143.38613605 1342.62916748 143.38322237 1341.89026275 143.38022039 1341.12896697 C143.37407105 1338.62820551 143.38950282 1336.1280293 143.40465078 1333.62731248 C143.40466818 1331.81851118 143.40336281 1330.00970946 143.40084729 1328.20090991 C143.3977282 1323.19244108 143.41344785 1318.18417549 143.43197849 1313.17574639 C143.4487646 1307.74099112 143.4480963 1302.30623508 143.44950292 1296.87145799 C143.45433889 1287.3331623 143.47017933 1277.79493379 143.49306402 1268.25666505 C143.5269611 1254.07214675 143.54353373 1239.8876464 143.55589643 1225.70309482 C143.56184816 1218.949172 143.56850461 1212.19524996 143.5754641 1205.44132811 C143.57651217 1204.42083886 143.57651217 1204.42083886 143.57758141 1203.37973366 C143.58859745 1192.78519685 143.60328211 1182.19066851 143.62015375 1171.59613949 C143.62129243 1170.88000765 143.6224311 1170.1638758 143.62360428 1169.42604299 C143.62823655 1166.51747889 143.63288568 1163.60891481 143.63754568 1160.70035075 C143.69446249 1125.14931791 143.7214263 1089.59832194 143.734858 1054.04724799 C143.73800246 1045.72877585 143.74150571 1037.41030386 143.74501345 1029.09183186 C143.74597462 1026.80486844 143.74693479 1024.51790502 143.74789479 1022.2309416 C143.74853673 1020.70233057 143.74917939 1019.17371955 143.74982276 1017.64510853 C143.75143553 1013.8110414 143.753037 1009.97697428 143.75461543 1006.14290714 C143.76919918 970.7328402 143.78820584 935.32277677 143.81203298 899.91271482 C143.81364586 897.51165502 143.81524289 895.11059521 143.81683843 892.7095354 C143.84151216 855.75168488 143.87601719 818.79386838 143.93443403 781.83605462 C143.93568776 781.0418564 143.9369415 780.24765819 143.93823323 779.42939335 C143.95847948 766.62502187 143.97927057 753.82065126 144.00017299 741.01628083 C144.06040697 704.11609033 144.11279281 667.21594489 144.12141332 630.31570131 C144.1215947 629.55620357 144.12177608 628.79670583 144.12196296 628.01419301 C144.12566307 612.08679905 144.12660179 596.1594063 144.12398132 580.23201213 C144.12276144 572.77216708 144.12214532 565.31232204 144.12186918 557.85247689 C144.12181182 556.75080553 144.12181182 556.75080553 144.1217533 555.62687817 C144.12082232 532.00044194 144.16245767 508.37431609 144.22709372 484.74797519 C144.29391708 460.26801681 144.31528723 435.78843063 144.2839071 411.30839489 C144.26729223 397.20486626 144.2868644 383.10247659 144.3587151 368.99911543 C144.40319094 359.56633347 144.40009176 350.13432424 144.3591201 340.70152887 C144.3371529 335.3338658 144.33514448 329.96837108 144.39149843 324.60091023 C144.61371911 302.07822312 144.51398153 284.2067919 131.41449268 265.03326733 C128.63857667 260.84719115 126.34651602 256.40311848 124.00309858 251.96538812 C123.01929201 250.1721074 122.03504951 248.37906562 121.04997358 246.58648187 C117.05013655 239.26955571 113.15566209 231.89697633 109.25309858 224.52788812 C104.47078365 215.499334 99.66958289 206.48438043 94.75309858 197.52788812 C89.45496318 187.87613171 84.29316148 178.15459169 79.13932905 168.42534906 C74.72710843 160.09827836 70.28791666 151.78908874 65.75309858 143.52788812 C60.45496318 133.87613171 55.29316148 124.15459169 50.13932905 114.42534906 C45.72710843 106.09827836 41.28791666 97.78908874 36.75309858 89.52788812 C31.83660554 80.57137992 27.0361265 71.55607656 22.25309858 62.52788812 C10.86897287 41.03141049 10.86897287 41.03141049 -0.94612017 19.77007562 C-1.36764361 19.02886468 -1.78916705 18.28765374 -2.22346392 17.52398187 C-3.00113264 16.16180731 -3.78330934 14.80219099 -4.57112017 13.44585687 C-8.13718836 7.21874538 -8.13718836 7.21874538 -8.24690142 4.52788812 C-6.27810406 0.55391792 -4.31859017 0.06277886 0 0 Z " fill="#FEFEFE" transform="translate(385.24690142273903,901.4721118807793)"/>
<path d="M0 0 C1.1459032 -0.00301597 2.29180639 -0.00603194 3.47243392 -0.0091393 C5.38083277 -0.00648509 5.38083277 -0.00648509 7.32778513 -0.00377727 C8.68813231 -0.00542569 10.04847902 -0.0075114 11.40882492 -0.00999737 C15.17658767 -0.01558949 18.9443278 -0.01488698 22.71209338 -0.01321978 C26.79994425 -0.0124915 30.8877886 -0.01750496 34.97563672 -0.0217948 C43.0966041 -0.02939252 51.2175649 -0.03156875 59.33853546 -0.03212385 C69.06016625 -0.03303574 78.78179092 -0.03969802 88.50341908 -0.04647068 C112.00270386 -0.06255047 135.50198801 -0.06843598 159.00127729 -0.07321942 C170.11103337 -0.07555317 181.22078893 -0.07915554 192.3305446 -0.0829148 C230.3372027 -0.0957514 268.34386051 -0.10647102 306.35052073 -0.1099174 C308.7375002 -0.11013904 311.12447968 -0.11036082 313.51145915 -0.11058275 C315.9043031 -0.1108034 318.29714705 -0.11102388 320.689991 -0.1112442 C325.49069647 -0.11168676 330.29140194 -0.11213388 335.09210742 -0.11258388 C336.87755864 -0.11274796 336.87755864 -0.11274796 338.69907959 -0.11291536 C377.31370514 -0.11654777 415.92831194 -0.13247419 454.5429303 -0.15577424 C495.3391345 -0.18034579 536.13532796 -0.19408898 576.93153977 -0.19528532 C581.40606884 -0.19545678 585.88059791 -0.19567222 590.35512698 -0.19591975 C591.45693522 -0.19597552 592.55874346 -0.19603129 593.69393983 -0.19608875 C611.45844029 -0.19724147 629.22292158 -0.2082821 646.98741555 -0.22280681 C664.82767149 -0.23714174 682.66790273 -0.24042583 700.50816284 -0.23236683 C711.11860697 -0.22789649 721.7289716 -0.23182699 732.33940535 -0.24760534 C739.41706283 -0.25730948 746.49466422 -0.25622109 753.57232111 -0.24616911 C757.61148519 -0.24074389 761.65049595 -0.24017256 765.68964772 -0.25267783 C769.35940815 -0.26394531 773.02888927 -0.26157209 776.69863963 -0.24801075 C778.65021088 -0.2444009 780.60179206 -0.25560867 782.55333161 -0.26730204 C784.27969696 -0.25680488 784.27969696 -0.25680488 786.04093838 -0.24609566 C787.03439944 -0.24633986 788.02786049 -0.24658406 789.05142643 -0.24683566 C792.07582118 0.18971904 793.45349995 1.03016901 795.64581835 3.1276505 C796.14606434 5.23330325 796.14606434 5.23330325 796.1463896 7.71792817 C796.15620389 8.66543472 796.16601818 9.61294127 796.17612988 10.58916014 C796.16172237 12.15363012 796.16172237 12.15363012 796.1470238 13.74970555 C796.15255819 14.85608925 796.15809259 15.96247295 796.1637947 17.10238343 C796.17746451 20.82904831 796.16239702 24.55505078 796.14752734 28.28170323 C796.15130824 30.94559131 796.15665328 33.60943433 796.16390002 36.2733109 C796.17785323 42.76944078 796.17026086 49.26537663 796.15522444 55.76149731 C796.13838644 63.32307654 796.14157184 70.88460713 796.14531852 78.44619931 C796.15120101 91.93681671 796.13701086 105.42734087 796.11237109 118.9179337 C796.08845392 132.01432344 796.08136447 145.11058855 796.09186327 158.2069962 C796.10326861 172.45980916 796.10520694 186.71256442 796.09076518 200.96537668 C796.08923931 202.48479553 796.08771895 204.00421438 796.08620417 205.52363324 C796.08544636 206.27125931 796.08468854 207.01888538 796.08390776 207.78916679 C796.07916159 213.06223022 796.08101877 218.33526792 796.08526957 223.60833097 C796.09019271 230.03366829 796.08422785 236.4588877 796.06437527 242.884198 C796.05449274 246.16368829 796.05101305 249.4429618 796.05726779 252.72246671 C796.06319449 256.27470918 796.05076506 259.82641756 796.03349841 263.3786118 C796.04251347 264.9397357 796.04251347 264.9397357 796.05171067 266.53239745 C796.04327072 267.48251175 796.03483078 268.43262605 796.02613509 269.41153169 C796.02459139 270.64166455 796.02459139 270.64166455 796.02301651 271.89664859 C795.51540297 274.89901422 794.96475246 276.10992067 792.64581835 278.1276505 C789.75275628 278.52359896 787.23833651 278.65753581 784.3430506 278.61984181 C783.48189523 278.62445719 782.62073987 278.62907257 781.73348889 278.63382781 C778.82182497 278.64449142 775.91102995 278.62640889 772.99941027 278.60866857 C770.9014204 278.61041142 768.80343138 278.61391105 766.70544702 278.61902523 C760.92011508 278.62800522 755.13507715 278.61192006 749.34978271 278.59191298 C743.11869322 278.57469581 736.88762133 278.58048061 730.65651476 278.58352208 C719.85399353 278.58562308 709.05159106 278.57317466 698.24909937 278.55057073 C686.91697066 278.52691921 675.58488036 278.5115103 664.25272715 278.50715947 C663.54866921 278.50688451 662.84461126 278.50660955 662.11921823 278.50632626 C658.54380232 278.50497297 654.96838638 278.50376742 651.39297041 278.50261876 C626.05478222 278.49421253 600.71664426 278.46725033 575.37848437 278.42940831 C550.75967192 278.39268301 526.14087332 278.3644101 501.52203906 278.34737706 C499.97447588 278.34629449 498.4269127 278.34521168 496.87934953 278.34412861 C484.30516524 278.33537379 471.73098058 278.32720337 459.15679581 278.31917468 C400.9864224 278.28161099 342.81618003 278.20133309 284.64581835 278.1276505 C284.64581835 360.9576505 284.64581835 443.7876505 284.64581835 529.1276505 C318.32257617 529.10444737 351.99933398 529.08124425 386.6965996 529.057338 C407.96548001 529.04712522 429.23435893 529.03740304 450.50324023 529.02999425 C460.95973264 529.02632749 471.41622503 529.02257894 481.87271733 529.01859851 C483.29109389 529.01805883 484.70947045 529.01752209 486.12784701 529.01698832 C508.75434214 529.00844906 531.3808273 528.99343735 554.0073164 528.97505606 C577.91326498 528.95567056 601.81920651 528.94366195 625.7251628 528.93947351 C640.05266761 528.93672361 654.38014383 528.92802541 668.70763984 528.91181757 C678.520632 528.9012794 688.3336093 528.89804265 698.14660672 528.90064774 C703.81571897 528.90193399 709.4847811 528.89990522 715.15388453 528.88923955 C720.33710284 528.87955873 725.52023699 528.8789817 730.70345905 528.88585271 C732.5850629 528.88670283 734.46667186 528.88412211 736.34826557 528.87788413 C738.8934029 528.86993254 741.43823086 528.87413833 743.98336279 528.88155484 C744.72471107 528.87630081 745.46605935 528.87104679 746.22987273 528.86563355 C749.92773273 528.8902145 751.482202 529.01857293 754.64581835 531.1276505 C756.84273535 540.53862069 752.51299852 550.92442582 749.84894335 559.88155675 C749.31771851 561.70904545 748.78790995 563.53694633 748.25937426 565.36521459 C747.10197318 569.35875791 745.93559664 573.34952869 744.7622124 577.33840489 C742.8631329 583.79470131 740.98213229 590.25616738 739.10529101 596.71895909 C738.61420068 598.40999824 738.61420068 598.40999824 738.11318934 600.13519979 C737.43112389 602.48410576 736.74913962 604.83303531 736.06723177 607.18198705 C734.99266428 610.88127174 733.91612977 614.57998037 732.83945239 618.27865148 C726.99097228 638.38372659 721.25078492 658.51891682 715.53615344 678.66240048 C714.03329225 683.9596473 712.52864739 689.25638636 711.02362597 694.55301976 C710.52228911 696.3175446 710.02095651 698.08207065 709.51962817 699.84659791 C708.767969 702.49220767 708.0163073 705.1378167 707.26461184 707.78341615 C704.51358697 717.46628044 701.76582352 727.15004873 699.02631152 736.83617711 C696.88065283 744.42246323 694.72815461 752.00676919 692.56723499 759.588723 C691.44906533 763.51300922 690.33440411 767.43821226 689.22846377 771.36596417 C688.20643456 774.99559227 687.17536165 778.62252177 686.13703644 782.24752057 C685.58103766 784.19776805 685.03489889 786.15081811 684.48905337 788.10393167 C684.1566754 789.25766495 683.82429743 790.41139823 683.48184741 791.60009313 C683.19780739 792.60179603 682.91376738 793.60349893 682.6211201 794.63555646 C681.56110908 797.34409988 680.96806858 798.40822601 678.64581835 800.1276505 C675.74688333 800.50024599 675.74688333 800.50024599 672.12343085 800.49679399 C671.45475008 800.50025552 670.78606932 800.50371705 670.0971255 800.50728348 C667.84029234 800.5152698 665.58409202 800.50172851 663.32729113 800.48841405 C661.69952909 800.48972142 660.07176765 800.49234657 658.4440096 800.49618155 C653.95848731 800.50291198 649.47317859 800.49085884 644.98768353 800.47584736 C640.1553802 800.462928 635.32308954 800.46727355 630.4907738 800.46955419 C622.11429821 800.47112952 613.73789257 800.46169316 605.36143458 800.44484067 C593.25039713 800.42049045 581.13939361 800.41264948 569.02833434 800.40887669 C549.38038339 800.40230596 529.73246974 800.38232792 510.08453906 800.35396886 C490.9950227 800.32644439 471.90551651 800.30523731 452.81598437 800.29244542 C451.62789217 800.29164143 450.43979997 800.29083744 449.21570498 800.29000908 C439.92445658 800.28377105 430.63320795 800.27790019 421.34195924 800.27214539 C375.77654471 800.24382904 330.21122352 800.18347779 284.64581835 800.1276505 C284.64581835 890.8776505 284.64581835 981.6276505 284.64581835 1075.1276505 C321.1984746 1075.09284581 357.75113085 1075.05804112 395.41144335 1075.02218175 C417.12095174 1075.00777649 438.8304564 1074.99357403 460.53996646 1074.98315561 C473.26841062 1074.97703178 485.9968547 1074.97076791 498.72529857 1074.96407252 C500.26496408 1074.963263 501.80462959 1074.96245789 503.3442951 1074.96165723 C527.90363216 1074.94884939 552.46294855 1074.9263326 577.02227311 1074.89875884 C602.25663446 1074.87047854 627.49098436 1074.85199823 652.72536129 1074.84590553 C656.28691819 1074.84504102 659.84847506 1074.84406411 663.41003191 1074.84301877 C664.11101952 1074.8428165 664.81200712 1074.84261423 665.53423677 1074.84240583 C676.83279558 1074.83885625 688.13131908 1074.82493018 699.42986347 1074.8071544 C710.77988423 1074.78951796 722.12985923 1074.78298363 733.47989699 1074.78714637 C739.63319292 1074.78907515 745.78638494 1074.78603925 751.93966258 1074.77003407 C757.56644664 1074.75550457 763.19305629 1074.75465268 768.81984815 1074.76495381 C770.86163205 1074.76622818 772.90342656 1074.76236398 774.94518939 1074.75300095 C777.70888315 1074.74105839 780.47193737 1074.74739111 783.23562014 1074.75850701 C784.43996277 1074.74668545 784.43996277 1074.74668545 785.66863555 1074.73462507 C788.85044328 1074.76378158 791.26710033 1074.93996112 794.14017004 1076.36382961 C796.06409709 1078.61765123 796.14600406 1079.77279756 796.1463896 1082.71792817 C796.15620389 1083.66543472 796.16601818 1084.61294127 796.17612988 1085.58916014 C796.16172237 1087.15363012 796.16172237 1087.15363012 796.1470238 1088.74970555 C796.15255819 1089.85608925 796.15809259 1090.96247295 796.1637947 1092.10238343 C796.17746451 1095.82904831 796.16239702 1099.55505078 796.14752734 1103.28170323 C796.15130824 1105.94559131 796.15665328 1108.60943433 796.16390002 1111.2733109 C796.17785323 1117.76944078 796.17026086 1124.26537663 796.15522444 1130.76149731 C796.13838644 1138.32307654 796.14157184 1145.88460713 796.14531852 1153.44619931 C796.15120101 1166.93681671 796.13701086 1180.42734087 796.11237109 1193.9179337 C796.08845392 1207.01432344 796.08136447 1220.11058855 796.09186327 1233.2069962 C796.10326861 1247.45980916 796.10520694 1261.71256442 796.09076518 1275.96537668 C796.08923931 1277.48479553 796.08771895 1279.00421438 796.08620417 1280.52363324 C796.08544636 1281.27125931 796.08468854 1282.01888538 796.08390776 1282.78916679 C796.07916159 1288.06223022 796.08101877 1293.33526792 796.08526957 1298.60833097 C796.09019271 1305.03366829 796.08422785 1311.4588877 796.06437527 1317.884198 C796.05449274 1321.16368829 796.05101305 1324.4429618 796.05726779 1327.72246671 C796.06319449 1331.27470918 796.05076506 1334.82641756 796.03349841 1338.3786118 C796.04251347 1339.9397357 796.04251347 1339.9397357 796.05171067 1341.53239745 C796.04327072 1342.48251175 796.03483078 1343.43262605 796.02613509 1344.41153169 C796.02459139 1345.64166455 796.02459139 1345.64166455 796.02301651 1346.89664859 C795.53890764 1349.75999189 794.63620983 1351.02133582 792.64581835 1353.1276505 C790.3812907 1353.62775316 790.3812907 1353.62775316 787.66527516 1353.62789649 C786.62841876 1353.63765434 785.59156236 1353.64741219 784.52328607 1353.65746573 C783.37821444 1353.64781521 782.2331428 1353.6381647 781.05337203 1353.62822175 C779.83656901 1353.63373592 778.61976599 1353.63925008 777.36609015 1353.64493135 C773.96712223 1353.65623967 770.5690346 1353.64947599 767.17013257 1353.63531935 C763.48066683 1353.6243182 759.79126739 1353.63641044 756.10180682 1353.64562684 C749.6285582 1353.65856771 743.15544625 1353.65653946 736.68219721 1353.64484715 C727.05656289 1353.62750824 717.43103664 1353.63294754 707.80539682 1353.64301406 C690.61746285 1353.66023479 673.42959252 1353.6546471 656.24165983 1353.63965688 C641.20116793 1353.62662344 626.16069815 1353.62140558 611.12020075 1353.62397504 C609.62577045 1353.62421566 609.62577045 1353.62421566 608.10114964 1353.62446115 C604.05727095 1353.62512469 600.01339226 1353.6258271 595.96951358 1353.62658649 C558.00827306 1353.633616 520.0470715 1353.61810068 482.0858409 1353.59196303 C448.33116295 1353.56884492 414.57652783 1353.56345986 380.82184374 1353.57369542 C372.17873635 1353.57629726 363.53562895 1353.57888222 354.8925215 1353.58129334 C353.82858043 1353.58159079 352.76463936 1353.58188824 351.66845766 1353.5821947 C323.49452977 1353.58980272 295.32060542 1353.58340363 267.1466791 1353.57259732 C264.11659935 1353.57144948 261.08651959 1353.5703063 258.05643983 1353.5691705 C256.04621626 1353.56841525 254.03599269 1353.56764961 252.02576913 1353.56687349 C236.99099281 1353.56120572 221.95622757 1353.56255147 206.92145121 1353.56710172 C189.83368404 1353.57219968 172.74595841 1353.56640037 155.65820163 1353.54620742 C146.08490902 1353.53518673 136.51169803 1353.53245953 126.93840287 1353.54149595 C120.55465782 1353.54669075 114.17098301 1353.54108236 107.78725274 1353.52644261 C104.14280223 1353.51838875 100.49851744 1353.51519998 96.8540675 1353.52501517 C92.94009146 1353.53543701 89.02638951 1353.52297424 85.11242354 1353.50796723 C83.96501074 1353.51470488 82.81759793 1353.52144254 81.63541505 1353.52838436 C80.60106217 1353.52061758 79.56670929 1353.5128508 78.50101238 1353.50484866 C77.60479501 1353.50442164 76.70857764 1353.50399463 75.78520217 1353.50355467 C75.07920551 1353.37950629 74.37320885 1353.25545792 73.64581835 1353.1276505 C71.13007044 1349.35402863 71.37521762 1346.39843851 71.41057068 1342.02986896 C71.40943201 1341.18938034 71.40829333 1340.34889171 71.40712015 1339.48293374 C71.40573854 1336.63602964 71.41876783 1333.78936772 71.43159163 1330.94249463 C71.43356059 1328.884207 71.43464375 1326.82591836 71.43491611 1324.7676298 C71.43822389 1319.06646352 71.45407989 1313.36538806 71.4717699 1307.66425076 C71.48872091 1301.47849811 71.4939566 1295.29273457 71.50053519 1289.10696375 C71.51362859 1278.24998091 71.53388325 1267.3930355 71.55882227 1256.53607488 C71.59753055 1239.63354667 71.62300015 1222.73101277 71.64594437 1205.82845674 C71.65539972 1198.89807656 71.66523365 1191.96769691 71.67507815 1185.03731728 C71.67617395 1184.26296188 71.67726974 1183.48860648 71.67839874 1182.69078577 C71.69551545 1170.63142227 71.7148703 1158.57206353 71.73536062 1146.51270533 C71.81374077 1100.20003074 71.8625395 1053.88739488 71.89129626 1007.57466376 C71.89398339 1003.27541641 71.8967531 998.97616911 71.8995164 994.6769218 C71.91069143 977.24699104 71.92143809 959.81706003 71.93189979 942.38712883 C71.93242338 941.51526873 71.93294697 940.64340864 71.93348643 939.74512854 C71.93454599 937.98081188 71.93560541 936.21649522 71.93666471 934.45217855 C71.93879096 930.91079966 71.94091764 927.36942077 71.94304529 923.82804188 C71.94411373 922.04958388 71.94518169 920.27112588 71.94624919 918.49266788 C71.9625131 891.41479456 71.9798898 864.33692224 71.99955097 837.25905116 C72.00153175 834.5258838 72.00349254 831.79271642 72.00545195 829.05954905 C72.03577034 786.9910211 72.07970054 744.92255551 72.16010058 702.85409093 C72.16269027 701.49811651 72.16269027 701.49811651 72.16533228 700.11474867 C72.19323185 685.54045535 72.22208883 670.96616391 72.25109897 656.39187277 C72.33469163 614.39034473 72.40862256 572.38888527 72.42434561 530.38726926 C72.42483821 529.09048049 72.42483821 529.09048049 72.42534077 527.76749398 C72.43208333 509.63740512 72.43511863 491.50731773 72.43345307 473.37722771 C72.43267678 464.88565287 72.43265419 456.39407811 72.43303645 447.90250325 C72.43305888 447.06647833 72.43308131 446.2304534 72.43310442 445.36909439 C72.43418669 418.476238 72.49003778 391.58383924 72.575206 364.69112789 C72.66084386 337.58141092 72.69359925 310.47218681 72.65349028 283.36234805 C72.6479512 279.60777923 72.64302236 275.85320985 72.63846362 272.09863973 C72.63754856 271.36270244 72.63663349 270.62676516 72.6356907 269.86852675 C72.62282783 258.26108003 72.66687792 246.65458989 72.73526801 235.04736708 C72.80149849 223.60575815 72.80478965 212.16589305 72.7474913 200.7241446 C72.71864958 194.61409908 72.71586054 188.50730837 72.78942972 182.3975646 C73.08993488 155.83008219 72.4114625 135.75571796 55.85142005 114.098612 C52.07246366 109.00833031 48.90114467 103.56330538 45.64581835 98.1276505 C44.36999275 96.03687959 43.09283474 93.94692061 41.8137871 91.85811925 C40.48608953 89.67766201 39.15930282 87.49664994 37.83331835 85.3151505 C37.47576464 84.72693517 37.11821093 84.13871984 36.74982226 83.5326798 C30.41444002 73.10355933 24.16946821 62.62232181 17.95795214 52.11904454 C13.59246638 44.73788284 9.20437234 37.37267222 4.7356621 30.05343175 C4.34097735 29.406554 3.9462926 28.75967626 3.5396477 28.09319615 C1.66543062 25.02362722 -0.21377193 21.95726118 -2.1002754 18.89522862 C-3.09414258 17.27197667 -3.09414258 17.27197667 -4.1080879 15.61593175 C-4.68889112 14.67274083 -5.26969434 13.72954991 -5.86809766 12.75777745 C-7.28745506 10.2457457 -8.45858895 7.87038493 -9.35418165 5.1276505 C-8.60418165 2.8776505 -8.60418165 2.8776505 -7.35418165 1.1276505 C-4.76381786 -0.16753139 -2.90230813 0.00150543 0 0 Z " fill="#FEFEFE" transform="translate(2038.3541816473007,901.8723495006561)"/>
<path d="M0 0 C0.42667969 0.76699219 0.85335938 1.53398438 1.29296875 2.32421875 C5.92753234 10.55176359 10.80319629 18.60426209 15.79541016 26.61938477 C20.46418516 34.11757886 25.06401346 41.65574532 29.62744141 49.21850586 C30.1538623 50.08741455 30.6802832 50.95632324 31.22265625 51.8515625 C31.75211064 52.74376355 32.28156503 53.6359646 32.82706349 54.55520204 C34.40927549 57.14345215 36.1381557 59.57458998 37.94177402 62.01308459 C46.67055674 74.16880027 48.73273691 83.39631866 48.48216057 98.1512537 C48.49166603 100.22786315 48.50643706 102.30445384 48.52593428 104.38099352 C48.56415467 110.05904725 48.5282157 115.73451619 48.47959704 121.41239954 C48.43998186 127.59964702 48.47045085 133.78662623 48.4918586 139.97390884 C48.51975926 150.80809281 48.50365197 161.6412934 48.4573822 172.47535896 C48.40799728 184.09239902 48.38501238 195.70905203 48.39387894 207.32619858 C48.3944242 208.06152148 48.39496947 208.79684438 48.39553126 209.5544498 C48.3984305 213.30425385 48.40175179 217.05405741 48.4052187 220.80386098 C48.42938524 247.90565184 48.39535085 275.00711827 48.3298912 302.10882759 C48.26522841 328.94060945 48.22461954 355.77224785 48.21640396 382.60410881 C48.21600278 383.8551583 48.21600278 383.8551583 48.21559349 385.13148151 C48.21315579 392.74938754 48.21099107 400.36729362 48.2091639 407.98519982 C48.2046046 426.92066403 48.19615324 445.85612544 48.18498421 464.79158688 C48.18422538 466.08485866 48.18422538 466.08485866 48.18345123 467.40425715 C48.15849928 509.32123189 48.08833764 551.23811588 48.01513672 593.1550293 C47.91337227 651.45711325 47.84258845 709.75911434 47.81005859 768.0612793 C47.80903715 769.87670581 47.80801474 771.69213233 47.80699136 773.50755884 C47.79885396 787.96566489 47.79085518 802.42377102 47.78311247 816.88187729 C47.74971883 879.19309062 47.6944909 941.50428693 47.63215464 1003.81547745 C47.62376552 1012.20593096 47.61549683 1020.59638454 47.60756081 1028.98683849 C47.57097311 1067.65069626 47.52840102 1106.31452822 47.46116112 1144.97834641 C47.45600388 1147.95477074 47.4508642 1150.9311951 47.44573593 1153.90761948 C47.44447225 1154.63810604 47.44320858 1155.3685926 47.44190661 1156.12121512 C47.42199579 1167.71718195 47.40865906 1179.31314645 47.39794219 1190.90912502 C47.38725723 1202.29345384 47.36915997 1213.67774685 47.34355363 1225.06205378 C47.33001809 1231.15889904 47.31967726 1237.25570541 47.31791173 1243.35256643 C47.3162201 1248.8868634 47.30548123 1254.42106247 47.28717587 1259.95532875 C47.28218721 1261.95641943 47.28062028 1263.95752195 47.28269444 1265.95861778 C47.28500585 1268.65485375 47.27524158 1271.35077172 47.262205 1274.04697043 C47.26580514 1274.83410831 47.26940527 1275.62124619 47.2731145 1276.43223673 C47.22831829 1281.77168171 47.22831829 1281.77168171 45 1284 C42.79882812 1284.25396729 42.79882812 1284.25396729 40.03125 1284.25878906 C38.47954102 1284.26824554 38.47954102 1284.26824554 36.89648438 1284.27789307 C35.77564453 1284.2738446 34.65480469 1284.26979614 33.5 1284.265625 C32.35337891 1284.26753845 31.20675781 1284.2694519 30.02539062 1284.27142334 C27.59765402 1284.27278622 25.16991016 1284.26908267 22.7421875 1284.26074219 C19.01545927 1284.25004438 15.28921314 1284.26063431 11.5625 1284.2734375 C9.20833226 1284.27211592 6.85416483 1284.26955357 4.5 1284.265625 C3.37916016 1284.26967346 2.25832031 1284.27372192 1.10351562 1284.27789307 C0.06904297 1284.27158875 -0.96542969 1284.26528442 -2.03125 1284.25878906 C-2.94455078 1284.25719788 -3.85785156 1284.25560669 -4.79882812 1284.25396729 C-7 1284 -7 1284 -9 1282 C-9.19764355 1279.15021295 -9.26770362 1276.3975767 -9.251849 1273.54650688 C-9.25624229 1272.20974486 -9.25624229 1272.20974486 -9.26072434 1270.84597754 C-9.2681781 1267.82033783 -9.26121813 1264.79489569 -9.25447559 1261.76925659 C-9.25686244 1259.58458195 -9.26012566 1257.39990811 -9.26419219 1255.21523595 C-9.27287787 1249.15869895 -9.26895877 1243.10222327 -9.26313647 1237.0456852 C-9.25941783 1231.15317593 -9.26507699 1225.26068068 -9.27048406 1219.36817381 C-9.28134212 1207.16143797 -9.28263327 1194.95471753 -9.27878571 1182.74797821 C-9.27491553 1170.37082269 -9.27535484 1157.99367867 -9.2810955 1145.61652374 C-9.28145433 1144.83594304 -9.28181316 1144.05536235 -9.28218286 1143.25112769 C-9.28365769 1140.07215587 -9.28516208 1136.89318406 -9.28670432 1133.71421227 C-9.30235879 1101.40803925 -9.30501617 1069.10187411 -9.30254826 1036.79569797 C-9.30220983 1032.32841097 -9.30188773 1027.86112397 -9.30158257 1023.39383698 C-9.30152153 1022.50659089 -9.30146049 1021.6193448 -9.30139759 1020.70521246 C-9.30012696 1001.06290389 -9.30272476 981.4205964 -9.30610864 961.77828815 C-9.30687938 957.29642119 -9.3076241 952.81455422 -9.30837366 948.33268726 C-9.30867535 946.53400839 -9.30897723 944.73532951 -9.3092793 942.93665064 C-9.30942898 942.04509429 -9.30957866 941.15353793 -9.30973287 940.23496472 C-9.3100364 938.43163879 -9.31034108 936.62831286 -9.31064692 934.82498693 C-9.31932324 883.63850233 -9.32396145 832.45201869 -9.31969929 781.26553345 C-9.31962123 780.3171931 -9.31954317 779.36885276 -9.31946275 778.39177483 C-9.31858991 767.81614577 -9.31766065 757.24051672 -9.31671212 746.66488767 C-9.31662661 745.71001624 -9.3165411 744.75514482 -9.316453 743.77133789 C-9.31574209 735.83589955 -9.31574209 735.83589955 -9.31541077 732.18656519 C-9.30987376 671.09637605 -9.31741929 610.00620203 -9.33618164 548.91601562 C-9.3409036 533.52216597 -9.345584 518.1283163 -9.3500185 502.73446655 C-9.35042848 501.31280358 -9.35042848 501.31280358 -9.35084675 499.86242014 C-9.35921365 470.66712 -9.3638973 441.47182111 -9.36472607 412.27651978 C-9.36475243 411.36036601 -9.3647788 410.44421224 -9.36480596 409.50029624 C-9.36534666 389.39186847 -9.36497448 369.2834408 -9.36376625 349.17501307 C-9.3633406 341.98049129 -9.36297548 334.78596951 -9.36263681 327.59144774 C-9.36255151 325.80153577 -9.36246257 324.01162381 -9.36236999 322.22171185 C-9.36091925 293.66191739 -9.36806015 265.10213318 -9.37937395 236.54234118 C-9.39100447 206.99176923 -9.39160915 177.44121562 -9.37953053 147.8906436 C-9.37827861 144.72158783 -9.37707514 141.55253205 -9.37590981 138.38347626 C-9.37561951 137.60570326 -9.37532922 136.82793026 -9.37503013 136.02658838 C-9.3706939 123.67930856 -9.37645434 111.33205466 -9.38635 98.98477891 C-9.39585497 86.86250198 -9.39475578 74.74026532 -9.38214377 62.61799077 C-9.37583449 56.12548881 -9.3744209 49.63308151 -9.38600711 43.14058471 C-9.39642846 37.24707072 -9.39331977 31.35373292 -9.37890258 25.46022877 C-9.37614913 23.32906463 -9.3785428 21.19788682 -9.38640973 19.06673542 C-9.39629456 16.19543462 -9.38805093 13.32476652 -9.37489682 10.45349312 C-9.38583237 9.19560786 -9.38583237 9.19560786 -9.39698883 7.91231077 C-9.37495883 5.61566842 -9.37495883 5.61566842 -9 2 C-5.5647952 -0.29013653 -4.014669 -0.17842973 0 0 Z " fill="#FEFEFE" transform="translate(2040,969)"/>
<path d="M0 0 C4.0717355 0.55209973 4.86505134 1.31052851 7.30151367 4.44384766 C10.30130147 8.89412295 12.70388718 13.68714736 15.1875 18.4375 C16.43808256 20.79668045 17.69020572 23.15495135 18.9453125 25.51171875 C19.41827255 26.40154953 19.41827255 26.40154953 19.90078735 27.30935669 C22.85355484 32.84839827 25.9435986 38.30337835 29.0625 43.75 C35.05535267 54.2416967 40.7483333 64.88341882 46.39599609 75.56347656 C46.72589539 76.18650665 47.05579468 76.80953674 47.39569092 77.45144653 C48.29344889 79.14799184 49.1890362 80.84568529 50.08447266 82.54345703 C51.57948006 85.4420302 51.57948006 85.4420302 53.26418624 87.72146263 C55.03453084 91.17746002 55.10318782 94.12282546 55.06354749 97.91314083 C55.06775444 98.6551273 55.07196139 99.39711377 55.07629583 100.16158468 C55.08677794 102.66073588 55.07580439 105.15933528 55.06502342 107.65847874 C55.06815154 109.47085204 55.07259433 111.28322346 55.07823652 113.09559068 C55.08997544 118.10448045 55.08289925 123.11319796 55.07290266 128.12208508 C55.06532263 133.56050509 55.07506031 138.99889779 55.08263266 144.43731397 C55.09349371 153.97826917 55.09312313 163.5191735 55.08549118 173.06013107 C55.07417317 187.24749076 55.07992957 201.43480731 55.0891161 215.62216668 C55.10402066 239.48613924 55.1045422 263.35009243 55.09638596 287.21406746 C55.09601338 288.30469511 55.09601338 288.30469511 55.09563327 289.41735565 C55.09538448 290.14559908 55.09513569 290.8738425 55.09487936 291.62415391 C55.08731563 313.79329148 55.08535294 335.96242078 55.0889473 358.13155937 C55.08917973 359.61499714 55.0894112 361.09843491 55.08964171 362.58187267 C55.09057307 368.54289529 55.09152907 374.5039179 55.092521 380.4649405 C55.09527227 397.12929079 55.09698389 413.79364111 55.09787941 430.4579916 C55.09794082 431.59635322 55.09794082 431.59635322 55.09800346 432.75771205 C55.09923163 456.94645001 55.09584888 481.1351851 55.08933067 505.32392216 C55.08911993 506.10867647 55.08890918 506.89343079 55.08869205 507.70196554 C55.08525703 520.44659625 55.08159872 533.1912269 55.07792152 545.93585754 C55.06335132 596.48792668 55.06402894 647.03997198 55.07861328 697.59204102 C55.08227672 710.33136779 55.08590981 723.07069456 55.08933067 735.8100214 C55.08954202 736.59438022 55.08975336 737.37873905 55.08997111 738.18686632 C55.09643752 762.3508451 55.0991829 786.51482191 55.09787941 810.67880154 C55.09783866 811.43714147 55.0977979 812.1954814 55.09775592 812.97680134 C55.09681857 829.62189287 55.09491784 846.26698419 55.0921479 862.91207552 C55.09116043 868.86751567 55.0902212 874.82295582 55.08929577 880.77839597 C55.0890636 882.26001383 55.08882741 883.74163168 55.08858718 885.22324953 C55.08500322 907.38839943 55.08806188 929.55354003 55.09563327 951.71868877 C55.09588166 952.44585667 55.09613004 953.17302457 55.09638596 953.92222786 C55.096634 954.6480599 55.09688205 955.37389195 55.09713761 956.12171891 C55.10540316 980.57566836 55.10238145 1005.02959308 55.08654372 1029.48353917 C55.07770782 1043.59329945 55.07719865 1057.7030029 55.08848225 1071.81276175 C55.09517991 1081.22286438 55.09107646 1090.6329212 55.07796794 1100.04301701 C55.0707919 1105.41429916 55.06847317 1110.78546794 55.07918589 1116.15674675 C55.08881708 1121.03520246 55.08484705 1125.91344337 55.06964391 1130.79188317 C55.06660191 1132.55334307 55.06867399 1134.31482043 55.07626172 1136.07626661 C55.08578869 1138.45517893 55.0770609 1140.83333203 55.06354749 1143.21220833 C55.07071972 1143.90039062 55.07789194 1144.58857292 55.08528151 1145.29760922 C55.05017714 1148.30943348 54.81117237 1150.28181774 53.31341109 1152.92416164 C51.03666047 1155.13079581 49.57482031 1155.0011565 46.4375 1155.00170898 C45.36628906 1155.01108994 44.29507813 1155.02047089 43.19140625 1155.03013611 C42.03511719 1155.01890213 40.87882812 1155.00766815 39.6875 1154.99609375 C38.50027344 1154.99754898 37.31304687 1154.99900421 36.08984375 1155.00050354 C33.57810005 1154.9988425 31.0663464 1154.98725851 28.5546875 1154.96655273 C24.70268671 1154.93761409 20.85206252 1154.94593738 17 1154.95898438 C14.56249329 1154.95274683 12.12499094 1154.94435578 9.6875 1154.93359375 C8.53121094 1154.93652939 7.37492187 1154.93946503 6.18359375 1154.94248962 C5.11238281 1154.92980545 4.04117187 1154.91712128 2.9375 1154.90405273 C1.52210938 1154.89594826 1.52210938 1154.89594826 0.078125 1154.88768005 C-2.3125 1154.5 -2.3125 1154.5 -3.93848301 1153.45937723 C-6.05544392 1150.44054629 -5.72196933 1147.31761785 -5.68739682 1143.76228422 C-5.69147954 1142.96080143 -5.69556227 1142.15931864 -5.6997687 1141.33354849 C-5.70987472 1138.61955491 -5.69841094 1135.90606789 -5.68723011 1133.19208431 C-5.69005343 1131.22965407 -5.69419237 1129.26722536 -5.69953534 1127.30480036 C-5.71046244 1121.86996301 -5.70251612 1116.4352868 -5.6917013 1111.00045514 C-5.68323524 1105.10380642 -5.69207063 1099.20718057 -5.69876546 1093.31053311 C-5.7080905 1082.96199237 -5.70627698 1072.61349017 -5.69703293 1062.26495171 C-5.68716371 1051.15729525 -5.68379144 1040.04966536 -5.68840981 1028.94200516 C-5.68884036 1027.89094445 -5.68884036 1027.89094445 -5.68927962 1026.81865019 C-5.69047102 1023.96493714 -5.69171015 1021.11122412 -5.69300953 1018.25751112 C-5.70512023 991.65627547 -5.70256365 965.05506007 -5.69082069 938.453825 C-5.67951909 912.81458768 -5.6735313 887.17535938 -5.67500877 861.53611946 C-5.67509418 859.92761847 -5.67517906 858.31911748 -5.67526341 856.71061649 C-5.67561124 850.24715045 -5.67599632 843.78368442 -5.67642899 837.3202184 C-5.67762377 819.25090142 -5.67780544 801.1815845 -5.67722607 783.11226749 C-5.67720004 782.2893547 -5.67717401 781.46644191 -5.6771472 780.61859236 C-5.6762482 754.38713989 -5.67094738 728.15569024 -5.6625185 701.92423916 C-5.66210872 700.64757265 -5.66210872 700.64757265 -5.66169066 699.3451149 C-5.65723668 685.52256113 -5.65252205 671.70000744 -5.64779177 657.87745376 C-5.62904516 603.04891412 -5.62262773 548.22038826 -5.62817383 493.3918457 C-5.62852081 489.92705889 -5.62886643 486.46227208 -5.62921212 482.99748527 C-5.62934052 481.71251168 -5.62934052 481.71251168 -5.62947152 480.40157902 C-5.63041761 470.91499178 -5.63132933 461.42840453 -5.63219929 451.94181728 C-5.63227821 451.09114262 -5.63235712 450.24046795 -5.63243843 449.36401526 C-5.63665805 403.47101989 -5.63135957 357.57802608 -5.622688 311.68503147 C-5.62238471 310.06773759 -5.62208181 308.4504437 -5.6217793 306.83314981 C-5.62162971 306.03366051 -5.62148011 305.23417121 -5.62132599 304.41045496 C-5.62102457 302.79747228 -5.62072358 301.1844896 -5.62042303 299.57150692 C-5.61967416 295.55298019 -5.61891817 291.53445346 -5.61814686 287.51592673 C-5.61479542 269.88412433 -5.61273093 252.25232307 -5.61408257 234.62052035 C-5.61414311 233.82511531 -5.61420365 233.02971027 -5.61426603 232.21020205 C-5.61457802 228.2050753 -5.61491144 224.19994856 -5.61525235 220.19482182 C-5.61770004 191.28299986 -5.61367022 162.37119131 -5.59804235 133.45937305 C-5.59653232 130.61511331 -5.59505229 127.77085355 -5.5935955 124.92659378 C-5.59323476 124.22853573 -5.59287402 123.53047768 -5.59250235 122.81126636 C-5.5869523 111.73007511 -5.58810832 100.64889505 -5.59200034 89.56770353 C-5.59567763 78.68813697 -5.59208801 67.80858989 -5.58113613 56.92902771 C-5.5754726 51.10227794 -5.57306055 45.27557408 -5.57930271 39.44882386 C-5.58490132 34.15942503 -5.58147231 28.87011581 -5.57050393 23.5807261 C-5.56817599 21.66824237 -5.56927635 19.755751 -5.57402648 17.84327176 C-5.57994975 15.26619217 -5.57378288 12.68942869 -5.564349 10.11236662 C-5.56901234 9.36025676 -5.57367569 8.6081469 -5.57848036 7.83324583 C-5.54101502 2.75581478 -5.43153076 0.8198537 0 0 Z " fill="#FEFEFE" transform="translate(451.3125,1100.5)"/>
</svg>
